<svg width="18" height="18" viewBox="0 0 18 18" fill="none" xmlns="http://www.w3.org/2000/svg">
<path d="M9 -0.00012207C12.5951 -0.00012207 14.3928 -0.000317402 15.6875 0.856323C16.2657 1.23888 16.761 1.73421 17.1436 2.31238C18.0002 3.60711 18 5.40481 18 8.99988C18 12.5949 18.0002 14.3926 17.1436 15.6874C16.761 16.2655 16.2657 16.7609 15.6875 17.1434C14.3928 18.0001 12.5951 17.9999 9 17.9999C5.40493 17.9999 3.60723 18.0001 2.3125 17.1434C1.73434 16.7609 1.239 16.2655 0.856445 15.6874C-0.000195332 14.3926 0 12.5949 0 8.99988C0 5.40481 -0.000195531 3.60711 0.856445 2.31238C1.239 1.73421 1.73434 1.23888 2.3125 0.856323C3.60723 -0.000317601 5.40493 -0.00012207 9 -0.00012207ZM9 4.3407C6.42687 4.34081 4.34098 6.42676 4.34082 8.99988C4.34082 11.5731 6.42677 13.6599 9 13.66C11.5733 13.66 13.6592 11.5732 13.6592 8.99988C13.659 6.42669 11.5732 4.3407 9 4.3407ZM9 5.91687C10.7026 5.91687 12.0829 7.29731 12.083 8.99988C12.083 10.7026 10.7027 12.0829 9 12.0829C7.2974 12.0828 5.91699 10.7025 5.91699 8.99988C5.91715 7.29738 7.29749 5.91698 9 5.91687ZM13.8438 3.0116C13.2392 3.0116 12.7492 3.50183 12.749 4.10632C12.749 4.71098 13.2391 5.20105 13.8438 5.20105C14.4484 5.20099 14.9385 4.71094 14.9385 4.10632C14.9383 3.50186 14.4482 3.01166 13.8438 3.0116Z" fill="#0A0A0F"/>
</svg>
